<svg xmlns="http://www.w3.org/2000/svg" xmlns:xlink="http://www.w3.org/1999/xlink"
    viewBox="0 0 1000 1000" width="1000" height="1000" preserveAspectRatio="xMidYMid meet"
    style="width: 100%; height: 100%; transform: translate3d(0px, 0px, 0px); content-visibility: visible;"
    id="Success">
    <defs>
        <clipPath id="__lottie_element_3264">
            <rect width="1000" height="1000" x="0" y="0" />
        </clipPath>
    </defs>
    <g clip-path="url(#__lottie_element_3264)">
        <g
            transform="matrix(-0.017452405765652657,-0.9998477101325989,0.9998477101325989,-0.017452405765652657,497,488)"
            opacity="1" style="display: none;">
            <g opacity="1" transform="matrix(1,0,0,1,115.96700286865234,82.96700286865234)">
                <path stroke-linecap="round" stroke-linejoin="miter" fill-opacity="0"
                    stroke-miterlimit="4" stroke="rgb(77,239,48)" stroke-opacity="1"
                    stroke-width="82"
                    d=" M-105,-240.9669952392578 C-193.3470001220703,-240.9669952392578 -264.9670104980469,-169.3470001220703 -264.9670104980469,-81 C-264.9670104980469,7.3470001220703125 -193.3470001220703,78.96700286865234 -105,78.96700286865234 C-16.652999877929688,78.96700286865234 54.96699905395508,7.3470001220703125 54.96699905395508,-81 C54.96699905395508,-169.3470001220703 -16.652999877929688,-240.9669952392578 -105,-240.9669952392578z" />
            </g>
        </g>
        <g
            transform="matrix(-0.017452405765652657,-0.9998477101325989,0.9998477101325989,-0.017452405765652657,497,488)"
            opacity="1" style="display: block;">
            <g opacity="1" transform="matrix(1,0,0,1,115.96700286865234,82.96700286865234)">
                <path fill="rgb(77,238,48)" fill-opacity="1"
                    d=" M-105,-240.9669952392578 C-193.3470001220703,-240.9669952392578 -264.9670104980469,-169.3470001220703 -264.9670104980469,-81 C-264.9670104980469,7.3470001220703125 -193.3470001220703,78.96700286865234 -105,78.96700286865234 C-16.652999877929688,78.96700286865234 54.96699905395508,7.3470001220703125 54.96699905395508,-81 C54.96699905395508,-169.3470001220703 -16.652999877929688,-240.9669952392578 -105,-240.9669952392578z" />
                <path stroke-linecap="round" stroke-linejoin="miter" fill-opacity="0"
                    stroke-miterlimit="4" stroke="rgb(77,239,48)" stroke-opacity="1"
                    stroke-width="82"
                    d=" M-105,-240.9669952392578 C-193.3470001220703,-240.9669952392578 -264.9670104980469,-169.3470001220703 -264.9670104980469,-81 C-264.9670104980469,7.3470001220703125 -193.3470001220703,78.96700286865234 -105,78.96700286865234 C-16.652999877929688,78.96700286865234 54.96699905395508,7.3470001220703125 54.96699905395508,-81 C54.96699905395508,-169.3470001220703 -16.652999877929688,-240.9669952392578 -105,-240.9669952392578z" />
            </g>
        </g>
        <g
            transform="matrix(-0.017452405765652657,-0.9998477101325989,0.9998477101325989,-0.017452405765652657,497,488)"
            opacity="1" style="display: block;">
            <g opacity="1" transform="matrix(1,0,0,1,115.96700286865234,82.96700286865234)">
                <path stroke-linecap="round" stroke-linejoin="miter" fill-opacity="0"
                    stroke-miterlimit="4" stroke="rgb(255,255,255)" stroke-opacity="1"
                    stroke-width="59" d="M0 0" />
            </g>
        </g>
        <g transform="matrix(1,0,0,1,512,518)" opacity="1" style="display: block;">
            <g opacity="1" transform="matrix(1,0,0,1,0,0)">
                <path stroke-linecap="round" stroke-linejoin="round" fill-opacity="0"
                    stroke="rgb(255,255,255)" stroke-opacity="1" stroke-width="66"
                    d=" M-142.9409942626953,-20.57900047302246 C-105.16600036621094,2.6670000553131104 -38,44 -38,44 C-38,44 39.76900100708008,-38.768001556396484 79.38200378417969,-80.9280014038086" />
            </g>
        </g>
    </g>
</svg>